<?xml version="1.0" encoding="UTF-8" standalone="no"?><!DOCTYPE svg PUBLIC "-//W3C//DTD SVG 1.1//EN" "http://www.w3.org/Graphics/SVG/1.1/DTD/svg11.dtd"><svg width="100%" height="100%" viewBox="0 0 720 320" version="1.1" xmlns="http://www.w3.org/2000/svg" xmlns:xlink="http://www.w3.org/1999/xlink" xml:space="preserve" xmlns:serif="http://www.serif.com/" style="fill-rule:evenodd;clip-rule:evenodd;stroke-linecap:round;stroke-linejoin:round;stroke-miterlimit:1.5;"><path d="M21.602,29.65l-6.452,0l0,251.402l6.452,0" style="fill:none;stroke:#000012;stroke-width:5.71px;"/><path d="M385.415,22.949l-6.453,0l0,219.974l6.453,0" style="fill:none;stroke:#000012;stroke-width:5.71px;"/><g><path d="M44.342,55.87l-3.897,0l0,14.233l3.897,0" style="fill:none;stroke:#000012;stroke-width:1.52px;"/><path d="M145.549,55.87l3.896,0l0,14.233l-3.896,0" style="fill:none;stroke:#000012;stroke-width:1.52px;"/><text x="43.993px" y="65.61px" style="font-family:'ArialMT', 'Arial', sans-serif;font-size:6.332px;fill:#000012;">The ﬁrst sentence of the chunk EOS</text></g><g><path d="M415.521,55.87l-3.897,0l0,14.233l3.897,0" style="fill:none;stroke:#000012;stroke-width:1.52px;"/><path d="M507.933,55.87l3.896,0l0,14.233l-3.896,0" style="fill:none;stroke:#000012;stroke-width:1.52px;"/><text x="414.511px" y="65.61px" style="font-family:'ArialMT', 'Arial', sans-serif;font-size:6.332px;fill:#000012;">The Second <tspan x="450.3px 454.168px " y="65.61px 65.61px ">Th</tspan>ird Fourth Fifth</text></g><g><path d="M618.071,146.128l-5.696,0l0,85.067l5.696,0" style="fill:none;stroke:#000012;stroke-width:2.26px;"/><path d="M654.127,144.942l5.696,0l0,85.067l-5.696,0" style="fill:none;stroke:#000012;stroke-width:2.27px;"/><g transform="matrix(6.12323e-17,1,-1,6.12323e-17,1019.32,-673.075)"><text x="878.019px" y="384.848px" style="font-family:'ArialMT', 'Arial', sans-serif;font-size:26.523px;fill:#000012;">...</text></g><g transform="matrix(2.09282,0,0,2.09282,-1369.81,-222.404)"><text x="950.487px" y="181.085px" style="font-family:'ArialMT', 'Arial', sans-serif;font-size:4.287px;fill:#000012;">0 0 0 0 0</text><text x="950.487px" y="185.512px" style="font-family:'ArialMT', 'Arial', sans-serif;font-size:4.287px;fill:#000012;">0 0 0 0 0</text><text x="950.487px" y="189.939px" style="font-family:'ArialMT', 'Arial', sans-serif;font-size:4.287px;fill:#000012;">1 0 0 0 0</text><text x="950.487px" y="194.365px" style="font-family:'ArialMT', 'Arial', sans-serif;font-size:4.287px;fill:#000012;">0 0 0 0 0</text><text x="950.487px" y="198.792px" style="font-family:'ArialMT', 'Arial', sans-serif;font-size:4.287px;fill:#000012;">0 0 0 1 0</text><text x="950.487px" y="203.219px" style="font-family:'ArialMT', 'Arial', sans-serif;font-size:4.287px;fill:#000012;">0 0 0 0 0</text></g></g><g><path d="M593.299,104.35l-3.716,0l0,13.571l3.716,0" style="fill:none;stroke:#000012;stroke-width:1.27px;"/><path d="M673.491,104.35l3.715,0l0,13.571l-3.715,0" style="fill:none;stroke:#000012;stroke-width:1.27px;"/><text x="592.336px" y="113.636px" style="font-family:'ArialMT', 'Arial', sans-serif;font-size:6.037px;fill:#000012;">This Second <tspan x="627.463px 631.151px " y="113.636px 113.636px ">Th</tspan>ird Fourth Fifth</text></g><g><path d="M36.4,93.092l-3.897,0l0,14.233l3.897,0" style="fill:none;stroke:#000012;stroke-width:1.52px;"/><path d="M153.491,93.092l3.896,0l0,14.233l-3.896,0" style="fill:none;stroke:#000012;stroke-width:1.52px;"/><text x="35.593px" y="103.169px" style="font-family:'ArialMT', 'Arial', sans-serif;font-size:6.332px;fill:#000012;">Second sentence of chunk EOS P<tspan x="130.863px 135.086px " y="103.169px 103.169px ">AD</tspan> P<tspan x="145.171px 149.394px " y="103.169px 103.169px ">AD</tspan></text></g><g><path d="M402.897,83.242l-3.897,0l0,14.232l3.897,0" style="fill:none;stroke:#000012;stroke-width:1.52px;"/><path d="M520.557,83.242l3.896,0l0,14.232l-3.896,0" style="fill:none;stroke:#000012;stroke-width:1.52px;"/><text x="401.44px" y="93.319px" style="font-family:'ArialMT', 'Arial', sans-serif;font-size:6.332px;fill:#000012;">ﬁrst sentence sentence sentence sentence</text></g><g><path d="M40.377,132.136l-3.896,0l0,14.233l3.896,0" style="fill:none;stroke:#000012;stroke-width:1.52px;"/><path d="M149.513,132.136l3.897,0l0,14.233l-3.897,0" style="fill:none;stroke:#000012;stroke-width:1.52px;"/><text x="39.259px" y="140.729px" style="font-family:'ArialMT', 'Arial', sans-serif;font-size:6.332px;fill:#000012;">Third sentence of chunk EOS P<tspan x="127.479px 131.703px " y="140.729px 140.729px ">AD</tspan> P<tspan x="141.788px 146.011px " y="140.729px 140.729px ">AD</tspan></text></g><g><path d="M435.471,110.613l-3.896,0l0,14.233l3.896,0" style="fill:none;stroke:#000012;stroke-width:1.52px;"/><path d="M487.983,110.613l3.896,0l0,14.233l-3.896,0" style="fill:none;stroke:#000012;stroke-width:1.52px;"/><text x="433.958px" y="119.206px" style="font-family:'ArialMT', 'Arial', sans-serif;font-size:6.332px;fill:#000012;">sentence of of of of</text></g><g><path d="M39.141,169.878l-3.896,0l0,14.233l3.896,0" style="fill:none;stroke:#000012;stroke-width:1.52px;"/><path d="M150.749,169.878l3.897,0l0,14.233l-3.897,0" style="fill:none;stroke:#000012;stroke-width:1.52px;"/><text x="37.771px" y="178.288px" style="font-family:'ArialMT', 'Arial', sans-serif;font-size:6.332px;fill:#000012;">Fourth sentence of chunk EOS P<tspan x="129.865px 134.088px " y="178.288px 178.288px ">AD</tspan> P<tspan x="144.173px 148.397px " y="178.288px 178.288px ">AD</tspan></text></g><g><path d="M427.468,137.984l-3.896,0l0,14.233l3.896,0" style="fill:none;stroke:#000012;stroke-width:1.52px;"/><path d="M495.985,137.984l3.897,0l0,14.233l-3.897,0" style="fill:none;stroke:#000012;stroke-width:1.52px;"/><text x="425.192px" y="146.394px" style="font-family:'ArialMT', 'Arial', sans-serif;font-size:6.332px;fill:#000012;">of chunk chunk chunk the</text></g><g><path d="M44.257,206.84l-3.896,0l0,14.233l3.896,0" style="fill:none;stroke:#000012;stroke-width:1.52px;"/><path d="M145.633,206.84l3.897,0l0,14.233l-3.897,0" style="fill:none;stroke:#000012;stroke-width:1.52px;"/><text x="42.585px" y="215.848px" style="font-family:'ArialMT', 'Arial', sans-serif;font-size:6.332px;fill:#000012;">Fifth sentence of the chunk EOS P<tspan x="139.255px 143.478px " y="215.848px 215.848px ">AD</tspan></text></g><g><path d="M426.042,165.356l-3.897,0l0,14.233l3.897,0" style="fill:none;stroke:#000012;stroke-width:1.52px;"/><path d="M497.412,165.356l3.896,0l0,14.233l-3.896,0" style="fill:none;stroke:#000012;stroke-width:1.52px;"/><text x="424.871px" y="174.363px" style="font-family:'ArialMT', 'Arial', sans-serif;font-size:6.332px;fill:#000012;">the EOS EOS EOS chunk</text></g><g><path d="M425.86,190.165l-3.897,0l0,14.233l3.897,0" style="fill:none;stroke:#000012;stroke-width:1.52px;"/><path d="M497.594,190.165l3.896,0l0,14.233l-3.896,0" style="fill:none;stroke:#000012;stroke-width:1.52px;"/><text x="424.23px" y="199.173px" style="font-family:'ArialMT', 'Arial', sans-serif;font-size:6.332px;fill:#000012;">chunk P<tspan x="446.638px 450.861px " y="199.173px 199.173px ">AD</tspan> P<tspan x="460.946px 465.169px " y="199.173px 199.173px ">AD</tspan> P<tspan x="475.254px 479.477px " y="199.173px 199.173px ">AD</tspan> EOS</text></g><g><path d="M427.947,214.567l-3.896,0l0,14.233l3.896,0" style="fill:none;stroke:#000012;stroke-width:1.52px;"/><path d="M495.506,214.567l3.897,0l0,14.233l-3.897,0" style="fill:none;stroke:#000012;stroke-width:1.52px;"/><text x="426.101px" y="223.575px" style="font-family:'ArialMT', 'Arial', sans-serif;font-size:6.332px;fill:#000012;">EOS P<tspan x="444.985px 449.208px " y="223.575px 223.575px ">AD</tspan> P<tspan x="459.293px 463.516px " y="223.575px 223.575px ">AD</tspan> P<tspan x="473.601px 477.824px " y="223.575px 223.575px ">AD</tspan> P<tspan x="487.909px 492.133px " y="223.575px 223.575px ">AD</tspan></text></g><path d="M174.313,29.65l6.453,0l0,251.402l-6.453,0" style="fill:none;stroke:#000012;stroke-width:5.71px;"/><path d="M538.126,22.949l6.452,0l0,219.974l-6.452,0" style="fill:none;stroke:#000012;stroke-width:5.71px;"/><g transform="matrix(6.12323e-17,1,-1,6.12323e-17,510.593,-108.034)"><text x="341.737px" y="417px" style="font-family:'ArialMT', 'Arial', sans-serif;font-size:27.024px;fill:#000012;">...</text></g><g transform="matrix(0.931845,0,0,0.931845,17.2234,-76.78)"><text x="21.047px" y="400.951px" style="font-family:'ArialMT', 'Arial', sans-serif;font-size:8px;fill:#000012;">* Every word in the sentences</text><text x="21.047px" y="409.213px" style="font-family:'ArialMT', 'Arial', sans-serif;font-size:8px;fill:#000012;">is actually represented as an index</text></g><g transform="matrix(0.838959,0,0,0.876301,570.507,-290.776)"><text x="21.047px" y="400.951px" style="font-family:'ArialMT', 'Arial', sans-serif;font-size:8px;fill:#000012;">Here, every word is OneHot-encoded,</text><text x="21.047px" y="409.213px" style="font-family:'ArialMT', 'Arial', sans-serif;font-size:8px;fill:#000012;">this means a word gets represented by a</text><text x="21.047px" y="417.475px" style="font-family:'ArialMT', 'Arial', sans-serif;font-size:8px;fill:#000012;">vector with a length of the used vocabulary<tspan x="172.098px " y="417.475px ">.</tspan></text><text x="21.047px" y="433.998px" style="font-family:'ArialMT', 'Arial', sans-serif;font-size:8px;fill:#000012;">Where each index is 0 except for the index</text><text x="21.047px" y="442.26px" style="font-family:'ArialMT', 'Arial', sans-serif;font-size:8px;fill:#000012;">corresponding to that word.</text></g><g transform="matrix(6.12323e-17,-1,1,6.12323e-17,-424.52,-41.0999)"><text x="-209.603px" y="633.8px" style="font-family:'ArialMT', 'Arial', sans-serif;font-size:8.821px;fill:#000012;">Batch-size</text></g><g transform="matrix(6.12323e-17,-1,1,6.12323e-17,-60.707,322.713)"><text x="154.209px" y="633.8px" style="font-family:'ArialMT', 'Arial', sans-serif;font-size:8.821px;fill:#000012;">Length of longest sentence</text></g><text x="43.301px" y="39.848px" style="font-family:'ArialMT', 'Arial', sans-serif;font-size:8.821px;fill:#000012;">Length of longest sentence</text><text x="432.52px" y="41.068px" style="font-family:'ArialMT', 'Arial', sans-serif;font-size:8.821px;fill:#000012;">Batch-size</text><path d="M197.558,26.403l-8.846,8.846l8.846,-8.846l8.846,8.846l-8.846,-8.846l0,258.132l8.846,-8.846l-8.846,8.846l-8.846,-8.846l8.846,8.846l0,-258.132Z" style="fill:none;stroke:#000012;stroke-width:1.76px;"/><path d="M561.371,21.751l-8.846,8.846l8.846,-8.846l8.846,8.846l-8.846,-8.846l0,226.562l8.846,-8.846l-8.846,8.846l-8.846,-8.846l8.846,8.846l0,-226.562Z" style="fill:none;stroke:#000012;stroke-width:1.76px;"/><path d="M42.781,48.88l3.863,3.863l-3.863,-3.863l3.863,-3.864l-3.863,3.864l103.964,0l-3.863,-3.864l3.863,3.864l-3.863,3.863l3.863,-3.863l-103.964,0Z" style="fill:none;stroke:#000012;stroke-width:1.76px;"/><path d="M405.97,48.473l3.864,3.864l-3.864,-3.864l3.864,-3.864l-3.864,3.864l103.965,0l-3.864,-3.864l3.864,3.864l-3.864,3.864l3.864,-3.864l-103.965,0Z" style="fill:none;stroke:#000012;stroke-width:1.76px;"/><path d="M234.407,160.807l0,-9.12l109.62,0l0,-8.467l13.028,13.027l-13.028,13.027l0,-8.467l-109.62,0Z" style="fill:#000012;stroke:#000012;stroke-width:1.52px;"/><g><path d="M518.662,61.634c20.721,0 41.547,-2.938 59.036,-15.18c4.819,-3.373 9.271,-7.351 13.216,-11.711c5.071,-5.605 9.85,-11.793 17.484,-13.912c10.523,-2.92 26.086,0.712 32.004,10.652c3.122,5.244 3.51,11.565 3.148,17.517" style="fill:none;stroke:#47464c;stroke-width:1.52px;"/><path d="M638.443,43.009l5.335,6.002l5.021,-5.797" style="fill:none;stroke:#47464c;stroke-width:1.52px;"/></g><text x="626.867px" y="143.189px" style="font-family:'ArialMT', 'Arial', sans-serif;font-size:30.881px;fill:#000012;">=</text></svg>